# xmcd
#
# Track frame offsets:
#       150
#       61090
#       74830
#       123492
#       151802
#       185602
#       221577
#       245442
#
# Disc length: 3713 seconds
#
# Revision: 0
# Processed by: cddbd v1.5.1PL0 Copyright (c) Steve Scherf et al.
# Submitted via: WhereIsIt 3.60
#
DISCID=740e7f08
DTITLE=Must Be Musique
DYEAR=1992
DGENRE=
TTITLE0=John Watermann - The Shredding of Human Tissue
TTITLE1=Asmus Tietchens - Freiband 8
TTITLE2=Ophiolateria - Mirror of Dionysus
TTITLE3=Sigillum S - Region of Fire
TTITLE4=Trance - Siege
TTITLE5=CV Massage - L'Attesa
TTITLE6=Trance - Evidence of Danger
TTITLE7=Total Disease - Sterile
EXTD=
EXTT0=
EXTT1=
EXTT2=
EXTT3=
EXTT4=
EXTT5=
EXTT6=
EXTT7=
PLAYORDER=
